<svg width="220" height="64" viewBox="0 0 220 64" fill="none" xmlns="http://www.w3.org/2000/svg">
<g clip-path="url(#clip0_62_738)">
<path d="M29.101 43.6909V35.7109H26.627V32.0439H29.101V30.4639C29.101 26.3789 30.949 24.4859 34.959 24.4859C35.36 24.4859 35.914 24.5279 36.427 24.5889C36.8111 24.6294 37.1922 24.6945 37.568 24.7839V28.1089C37.3508 28.089 37.133 28.077 36.915 28.0729C36.6707 28.0666 36.4264 28.0636 36.182 28.0639C35.475 28.0639 34.923 28.1599 34.507 28.3729C34.2278 28.5139 33.9928 28.7291 33.828 28.9949C33.57 29.4149 33.454 29.9899 33.454 30.7469V32.0439H37.373L36.987 34.1469L36.7 35.7109H33.454V43.9559C39.396 43.2379 44 38.1789 44 32.0439C44 25.4169 38.627 20.0439 32 20.0439C25.373 20.0439 20 25.4169 20 32.0439C20 37.6719 23.874 42.3939 29.101 43.6909Z" fill="#8EB55A"/>
</g>
<g clip-path="url(#clip1_62_738)">
<path d="M71.0299 20.084C69.7529 20.144 68.8809 20.348 68.1199 20.647C67.3196 20.9502 66.5948 21.4238 65.9959 22.035C65.3871 22.6356 64.9163 23.3614 64.6159 24.162C64.3209 24.926 64.1199 25.8 64.0639 27.076C64.0079 28.352 63.9949 28.764 64.0009 32.023C64.0069 35.282 64.0219 35.69 64.0839 36.97C64.1449 38.247 64.3479 39.119 64.6469 39.881C64.9549 40.67 65.3669 41.338 66.0349 42.004C66.636 42.613 67.3625 43.0838 68.1639 43.384C68.9269 43.679 69.7999 43.88 71.0769 43.936C72.3549 43.992 72.7659 44.005 76.0239 43.999C79.2819 43.993 79.6918 43.978 80.9708 43.917C82.2509 43.857 83.1178 43.652 83.8808 43.354C84.6808 43.0507 85.4052 42.5771 86.0038 41.966C86.6128 41.3648 87.0837 40.6384 87.3839 39.837C87.6789 39.074 87.8798 38.201 87.9348 36.925C87.9908 35.645 88.0048 35.235 87.9978 31.977C87.9918 28.719 87.9778 28.31 87.9168 27.03C87.8568 25.75 87.6528 24.882 87.3528 24.119C87.0499 23.3192 86.5766 22.5948 85.9658 21.996C85.3649 21.3872 84.6388 20.9163 83.8378 20.616C83.0738 20.322 82.2018 20.12 80.9238 20.066C79.6468 20.009 79.2359 19.994 75.9769 20C72.7179 20.006 72.3099 20.021 71.0299 20.084ZM71.1699 41.777C69.9999 41.727 69.3649 41.532 68.9419 41.369C68.4198 41.1783 67.9474 40.8724 67.5598 40.474C67.1602 40.0881 66.8526 39.6171 66.6599 39.096C66.4949 38.673 66.2968 38.038 66.2429 36.868C66.1829 35.604 66.1709 35.224 66.1629 32.02C66.1569 28.816 66.1688 28.437 66.2239 27.172C66.2738 26.003 66.4699 25.367 66.6319 24.944C66.8479 24.383 67.1089 23.984 67.5268 23.562C67.9131 23.1622 68.3844 22.8546 68.9059 22.662C69.3289 22.497 69.9629 22.301 71.1329 22.245C72.3979 22.185 72.7768 22.173 75.9809 22.165C79.1839 22.159 79.5638 22.171 80.8308 22.227C81.9988 22.277 82.6348 22.471 83.0578 22.635C83.6178 22.851 84.0178 23.11 84.4398 23.53C84.8619 23.95 85.1208 24.347 85.3398 24.908C85.5049 25.33 85.7018 25.964 85.7568 27.135C85.8168 28.4 85.8308 28.78 85.8368 31.983C85.8418 35.186 85.8308 35.566 85.7758 36.831C85.7248 38.001 85.5308 38.636 85.3678 39.061C85.1518 39.621 84.8909 40.021 84.4718 40.441C84.0859 40.8407 83.6149 41.1483 83.0938 41.341C82.6718 41.506 82.0358 41.703 80.8678 41.759C79.6018 41.819 79.2228 41.831 76.0178 41.838C72.8128 41.845 72.4359 41.831 71.1699 41.777ZM80.9528 25.586C80.9532 25.8709 81.0381 26.1492 81.1967 26.3858C81.3553 26.6224 81.5805 26.8067 81.8439 26.9153C82.1072 27.0238 82.3968 27.0519 82.6761 26.9959C82.9554 26.9398 83.2118 26.8022 83.4128 26.6005C83.6139 26.3987 83.7506 26.1418 83.8057 25.8624C83.8608 25.5829 83.8317 25.2934 83.7222 25.0304C83.6127 24.7674 83.4276 24.5429 83.1905 24.3851C82.9533 24.2273 82.6747 24.1434 82.3898 24.144C82.0081 24.1448 81.6423 24.2971 81.3728 24.5675C81.1034 24.8379 80.9523 25.2043 80.9528 25.586ZM69.8389 32.012C69.842 33.6461 70.4942 35.2121 71.652 36.3653C72.8098 37.5186 74.3782 38.1647 76.0124 38.1615C77.6465 38.1583 79.2124 37.5061 80.3657 36.3484C81.5189 35.1906 82.165 33.6221 82.1618 31.988C82.1383 30.3674 81.4771 28.8212 80.3216 27.6846C79.1661 26.548 77.6093 25.9124 75.9885 25.9156C74.3677 25.9188 72.8134 26.5604 71.6623 27.7015C70.5112 28.8426 69.8561 30.3913 69.8389 32.012ZM71.9999 32.008C71.9983 31.2169 72.2313 30.4431 72.6695 29.7844C73.1077 29.1257 73.7314 28.6118 74.4617 28.3076C75.192 28.0034 75.9961 27.9225 76.7724 28.0753C77.5486 28.2281 78.2621 28.6076 78.8226 29.1659C79.3831 29.7242 79.7655 30.4362 79.9214 31.2118C80.0773 31.9874 79.9997 32.7918 79.6984 33.5234C79.3971 34.2549 78.8857 34.8806 78.2288 35.3214C77.5719 35.7623 76.799 35.9984 76.0079 36C75.4826 36.0011 74.9622 35.8986 74.4765 35.6986C73.9908 35.4985 73.5493 35.2048 73.1771 34.8341C72.8049 34.4634 72.5094 34.023 72.3074 33.5381C72.1054 33.0532 72.0009 32.5333 71.9999 32.008Z" fill="#8EB55A"/>
</g>
<g clip-path="url(#clip2_62_738)">
<path d="M128.447 40.452H124.893V34.883C124.893 33.555 124.866 31.846 123.041 31.846C121.188 31.846 120.905 33.291 120.905 34.785V40.452H117.351V29H120.765V30.561H120.811C121.288 29.661 122.448 28.711 124.181 28.711C127.782 28.711 128.448 31.081 128.448 34.166L128.447 40.452ZM113.337 27.433C113.066 27.4334 112.797 27.3802 112.547 27.2766C112.296 27.1729 112.068 27.0208 111.877 26.8289C111.685 26.6371 111.533 26.4093 111.43 26.1586C111.326 25.9079 111.273 25.6392 111.274 25.368C111.274 24.9598 111.395 24.5608 111.622 24.2215C111.849 23.8822 112.172 23.6178 112.549 23.4617C112.926 23.3057 113.341 23.265 113.742 23.3449C114.142 23.4247 114.51 23.6214 114.798 23.9102C115.087 24.199 115.283 24.5669 115.363 24.9673C115.442 25.3677 115.401 25.7827 115.245 26.1598C115.088 26.5369 114.823 26.8591 114.484 27.0857C114.144 27.3123 113.745 27.4332 113.337 27.433ZM115.119 40.452H111.555V29H115.119V40.452ZM130.225 20H109.771C108.792 20 108 20.774 108 21.729V42.271C108 43.227 108.792 44 109.771 44H130.222C131.2 44 132 43.227 132 42.271V21.729C132 20.774 131.2 20 130.222 20H130.225Z" fill="#8EB55A"/>
</g>
<path d="M175.498 26.186C175.362 25.6755 175.095 25.2096 174.722 24.8347C174.35 24.4599 173.886 24.1894 173.376 24.05C171.505 23.545 164 23.545 164 23.545C164 23.545 156.495 23.545 154.623 24.05C154.114 24.1895 153.65 24.4601 153.277 24.835C152.905 25.2098 152.638 25.6756 152.502 26.186C152 28.07 152 32 152 32C152 32 152 35.93 152.502 37.814C152.638 38.3246 152.905 38.7905 153.278 39.1653C153.65 39.5402 154.114 39.8107 154.624 39.95C156.495 40.455 164 40.455 164 40.455C164 40.455 171.505 40.455 173.377 39.95C173.887 39.8107 174.351 39.5402 174.723 39.1653C175.096 38.7905 175.363 38.3246 175.499 37.814C176 35.93 176 32 176 32C176 32 176 28.07 175.498 26.186ZM161.545 35.568V28.432L167.818 32L161.545 35.568Z" fill="#8EB55A"/>
<g clip-path="url(#clip3_62_738)">
<path d="M208.525 20.02C209.835 20 211.135 20.01 212.435 20C212.515 21.53 213.065 23.09 214.185 24.17C215.305 25.28 216.885 25.79 218.425 25.96V29.99C216.985 29.94 215.535 29.64 214.225 29.02C213.655 28.76 213.125 28.43 212.605 28.09C212.595 31.01 212.615 33.93 212.585 36.84C212.505 38.24 212.045 39.63 211.235 40.78C209.925 42.7 207.655 43.95 205.325 43.99C203.895 44.07 202.465 43.68 201.245 42.96C199.225 41.77 197.805 39.59 197.595 37.25C197.575 36.75 197.565 36.25 197.585 35.76C197.765 33.86 198.705 32.04 200.165 30.8C201.825 29.36 204.145 28.67 206.315 29.08C206.335 30.56 206.275 32.04 206.275 33.52C205.285 33.2 204.125 33.29 203.255 33.89C202.625 34.3 202.145 34.93 201.895 35.64C201.685 36.15 201.745 36.71 201.755 37.25C201.995 38.89 203.575 40.27 205.255 40.12C206.375 40.11 207.445 39.46 208.025 38.51C208.215 38.18 208.425 37.84 208.435 37.45C208.535 35.66 208.495 33.88 208.505 32.09C208.515 28.06 208.495 24.04 208.525 20.02Z" fill="#8EB55A"/>
</g>
<defs>
<clipPath id="clip0_62_738">
<rect width="24" height="24" fill="white" transform="translate(20 20)"/>
</clipPath>
<clipPath id="clip1_62_738">
<rect width="24" height="24" fill="white" transform="translate(64 20)"/>
</clipPath>
<clipPath id="clip2_62_738">
<rect width="24" height="24" fill="white" transform="translate(108 20)"/>
</clipPath>
<clipPath id="clip3_62_738">
<rect width="24" height="24" fill="white" transform="translate(196 20)"/>
</clipPath>
</defs>
</svg>
