<svg width="134" height="105" viewBox="0 0 134 105" fill="none" xmlns="http://www.w3.org/2000/svg">
<g clip-path="url(#clip0_62_463)">
<path d="M8.72714 96.5723C6.81458 95.6663 6.91457 92.9585 7.30939 90.8855C7.54269 89.6647 7.78368 88.4209 8.39386 87.3383C9.00403 86.2558 10.0577 85.3447 11.2986 85.2397C10.9833 84.9454 10.6679 84.6536 10.3551 84.3593C13.1137 82.4706 15.6903 80.3361 18.2643 78.2017C20.2359 76.5663 22.21 74.9335 24.1815 73.2981C27.4195 70.6159 30.6575 67.9312 33.8956 65.2491C34.6442 64.6298 35.4082 63.9874 35.8876 63.1428C36.4568 62.1319 36.5593 60.9316 36.6285 59.7722C36.7952 56.9928 36.8465 54.1623 36.1337 51.4724C34.9621 47.0628 31.7523 42.8886 32.7034 38.4252C33.2418 35.8966 35.0467 33.8466 36.1235 31.4972C36.5491 30.5682 36.8644 29.5803 37.4233 28.7229C37.9822 27.8656 38.8513 27.131 39.8743 27.0645C40.8972 26.998 41.9842 27.8297 41.9099 28.8483C41.8535 29.6366 41.1946 30.2227 40.6562 30.8036C38.436 33.1991 37.7694 36.6158 37.3618 39.8558C37.2079 41.0868 37.0772 42.3409 37.3105 43.5591C37.7566 45.8727 39.4359 47.7256 41.0459 49.4481C41.4715 48.2068 41.8996 46.963 42.3252 45.7217C42.4585 45.3301 42.5995 44.9283 42.8687 44.6161C43.3251 44.0863 44.0814 43.9046 44.7787 43.9405C46.7554 44.0428 48.491 45.842 48.5167 47.8178C48.5423 49.7936 46.8528 51.6388 44.8813 51.7898C46.7887 53.0566 47.5501 55.5673 47.3399 57.8451C47.1297 60.1229 46.1144 62.2394 45.1171 64.2971C48.0091 64.7117 50.9446 64.8115 53.8596 64.5914C55.1773 64.4916 56.5284 64.3303 57.8052 64.6733C59.0819 65.0162 60.292 66.0092 60.4253 67.3221C60.5894 68.9524 59.146 70.2474 57.8411 71.2404C55.2107 73.2418 52.5828 75.2457 49.9524 77.2471C49.496 77.5926 49.0269 77.9585 48.7782 78.4755C48.6064 78.8313 48.5577 79.2305 48.509 79.6246C48.3526 80.9094 48.1936 82.1942 48.0373 83.4764C46.84 81.5851 45.6401 79.6937 44.4429 77.8024C44.1275 77.3059 43.8019 76.7531 43.8865 76.1722C43.9583 75.6833 44.307 75.2892 44.6428 74.9258C46.9195 72.4484 49.4781 69.8149 52.8161 69.3696C48.9448 70.7797 44.5634 70.0043 40.6306 71.2404C37.1233 72.3409 34.3083 74.9283 31.0729 76.6712C27.94 78.3604 24.3609 79.2868 21.5921 81.5236C19.7769 82.9901 18.3438 84.994 16.2184 85.9538C15.4237 86.3121 14.5392 86.5245 13.8777 87.0901C13.3086 87.5789 12.9702 88.275 12.6471 88.9507C11.4063 91.5535 10.168 94.1563 8.92712 96.7591" fill="#8EB55A"/>
<path d="M8.92184 96.2421C7.14516 95.3643 7.35026 92.8818 7.63484 91.2515C7.85275 89.9923 8.09118 88.6589 8.72956 87.5328C9.26539 86.5859 10.1755 85.7413 11.301 85.6236C11.6087 85.5903 11.8368 85.2141 11.5728 84.9684C11.2574 84.6741 10.9421 84.3824 10.6293 84.088L10.5524 84.692C13.4135 82.7291 16.0824 80.5127 18.7513 78.2989C21.4202 76.0851 24.3326 73.6717 27.1245 71.3581C28.5474 70.1783 29.9703 68.9985 31.3932 67.8186C32.07 67.2581 32.7443 66.6977 33.4211 66.1372C34.0595 65.6074 34.7235 65.0981 35.3055 64.5069C35.8516 63.9541 36.2874 63.322 36.554 62.59C36.8207 61.858 36.9155 61.0775 36.9745 60.3097C37.1078 58.5873 37.1719 56.847 37.0694 55.122C36.9668 53.397 36.6874 51.7949 36.1464 50.2056C35.649 48.7366 34.9978 47.3264 34.403 45.8958C33.8083 44.4651 33.2981 43.1189 33.0443 41.6499C32.7904 40.1809 32.9135 38.635 33.4698 37.2095C34.0262 35.784 34.8876 34.5376 35.6413 33.2324C36.031 32.5567 36.3848 31.8657 36.6874 31.1491C37.0078 30.3916 37.2975 29.611 37.7513 28.9174C38.4333 27.8758 39.9023 26.8598 41.0611 27.8502C42.3507 28.9533 40.5484 30.2687 39.8792 31.1235C38.0564 33.4525 37.4308 36.4366 37.0463 39.303C36.8284 40.9307 36.6156 42.6045 37.0694 44.2117C37.477 45.6501 38.3282 46.9067 39.2742 48.0456C39.7536 48.6214 40.2612 49.1716 40.774 49.7193C40.9816 49.942 41.3278 49.8115 41.4175 49.5504C41.879 48.2042 42.2969 46.8299 42.8122 45.5016C43.0404 44.9104 43.4147 44.5265 44.0428 44.3807C44.5812 44.2552 45.1554 44.3269 45.6733 44.5061C47.6987 45.2073 48.7575 47.6182 47.6884 49.512C47.1142 50.5306 46.0656 51.2984 44.8863 51.4059C44.5043 51.4417 44.3658 51.8998 44.6914 52.1225C46.3425 53.2435 47.0244 55.3191 46.9911 57.2411C46.9501 59.6801 45.8297 61.9579 44.7863 64.1077C44.6914 64.3022 44.7504 64.6349 45.017 64.6707C47.6756 65.0469 50.3599 65.1774 53.0416 65.0316C55.1644 64.9164 58.2281 64.2535 59.6586 66.3496C61.0892 68.4457 58.5742 70.2065 57.1564 71.2865C55.0028 72.927 52.8467 74.5675 50.6932 76.2105C49.6933 76.9732 48.4755 77.6668 48.2191 78.9951C48.0833 79.7014 48.0294 80.4283 47.9423 81.1397C47.8474 81.9203 47.75 82.6983 47.6551 83.4789L48.373 83.2844C47.6038 82.0688 46.8321 80.8531 46.063 79.6374C45.6708 79.0206 45.2811 78.4013 44.8888 77.7845C44.5786 77.2931 44.1043 76.6738 44.312 76.057C44.4991 75.5016 45.0503 75.0486 45.44 74.6315C45.8297 74.2143 46.2322 73.792 46.6424 73.3876C47.4731 72.5687 48.3499 71.7881 49.3267 71.1508C50.4214 70.4368 51.6161 69.9275 52.9159 69.7432L52.7108 69.0036C49.1806 70.2679 45.3529 69.7714 41.7303 70.5571C38.1077 71.3428 35.4542 73.5335 32.4982 75.3916C30.9958 76.3359 29.414 77.0935 27.786 77.7922C26.158 78.4909 24.6069 79.1281 23.1251 80.006C21.6432 80.8838 20.4459 82.0099 19.2333 83.1949C18.6359 83.7784 18.0309 84.3619 17.3515 84.8482C16.6721 85.3344 15.9389 85.6646 15.162 85.9717C14.2673 86.3249 13.511 86.7625 12.9598 87.5712C12.3778 88.4286 11.9932 89.4421 11.5471 90.3737C10.5626 92.439 9.57816 94.5043 8.59368 96.5697C8.38345 97.0125 9.0449 97.404 9.25769 96.9562C10.1242 95.1391 10.9908 93.322 11.8548 91.5023C12.2778 90.6168 12.6906 89.7236 13.1238 88.8432C13.5033 88.0677 13.9391 87.3998 14.7262 86.9903C15.4646 86.6089 16.2747 86.3991 17.0002 85.9845C17.7258 85.5699 18.3308 85.0785 18.9256 84.541C20.1562 83.4277 21.251 82.1711 22.6277 81.2293C25.4658 79.2843 28.8602 78.3962 31.8265 76.6917C34.7927 74.9872 37.4308 72.6506 40.7278 71.6141C44.6863 70.3702 48.9857 71.1508 52.9134 69.7432C53.3902 69.5718 53.1928 68.9345 52.7083 69.0036C50.183 69.3593 48.0781 70.923 46.2938 72.6506C45.84 73.0908 45.399 73.5463 44.9657 74.0096C44.5325 74.4728 44.0479 74.913 43.7403 75.4581C42.9968 76.771 44.1658 78.0916 44.8401 79.1588L47.7013 83.6734C47.9192 84.0189 48.373 83.8449 48.4191 83.4789C48.5883 82.0944 48.7063 80.6919 48.9344 79.3175C49.037 78.6905 49.319 78.2631 49.7984 77.8587C50.2778 77.4544 50.8316 77.0602 51.3495 76.6661C53.5774 74.9693 55.8079 73.2776 58.0332 71.5757C59.5868 70.3882 61.5199 68.5864 60.5739 66.4289C59.5612 64.1205 56.7411 63.9874 54.585 64.1537C51.4546 64.3943 48.3319 64.3713 45.217 63.9311L45.4477 64.4941C46.5783 62.1626 47.7807 59.6878 47.7577 57.0363C47.7397 54.8917 46.8988 52.6983 45.076 51.4597L44.8811 52.1763C47.45 51.9408 49.4856 49.3124 48.7447 46.7685C48.3986 45.581 47.5192 44.5419 46.4091 43.9942C45.299 43.4465 43.7351 43.3058 42.743 44.1989C42.1071 44.7722 41.9123 45.7448 41.6457 46.5228C41.3226 47.4646 40.997 48.409 40.674 49.3508L41.3175 49.1819C40.2715 48.0635 39.2152 46.922 38.4692 45.5758C38.1025 44.913 37.8257 44.2066 37.6821 43.4619C37.5129 42.584 37.5539 41.6729 37.6411 40.7874C37.9282 37.8365 38.4205 34.6426 40.1023 32.1293C40.5125 31.5177 41.0227 31.016 41.5047 30.4658C41.9431 29.9667 42.3353 29.3653 42.2969 28.6717C42.2251 27.3383 40.7894 26.5245 39.5639 26.7241C38.0641 26.9698 37.0976 28.3313 36.5181 29.6161C36.1849 30.3532 35.9105 31.1107 35.5439 31.8325C35.1773 32.5542 34.7902 33.1914 34.3902 33.8569C33.6057 35.1646 32.8033 36.5032 32.4161 37.9952C32.029 39.4873 32.0982 40.9563 32.4187 42.4126C33.093 45.4556 34.7594 48.1607 35.6413 51.1397C36.1413 52.8263 36.3259 54.5743 36.3489 56.3274C36.3618 57.2129 36.3361 58.101 36.29 58.9865C36.249 59.8157 36.2233 60.6603 36.0669 61.4793C35.9105 62.2982 35.6336 62.9816 35.1209 63.5932C34.6081 64.2049 33.9749 64.704 33.3622 65.2107C31.9393 66.3905 30.5164 67.5704 29.0935 68.7502C26.258 71.0996 23.4225 73.4491 20.5895 75.7985C17.7566 78.1479 15.1569 80.3771 12.3137 82.5038C11.6087 83.0311 10.8959 83.5429 10.1704 84.042C9.97555 84.1751 9.9012 84.4643 10.0935 84.646C10.4088 84.9403 10.7242 85.232 11.0369 85.5264L11.3087 84.8712C9.06285 85.1041 7.82199 87.1592 7.30155 89.1554C6.84007 90.9239 6.41192 92.9893 6.89904 94.7987C7.14259 95.7047 7.68611 96.498 8.54241 96.9229C8.98337 97.1404 9.37563 96.4801 8.92953 96.26L8.92184 96.2421Z" fill="#8EB55A"/>
<path d="M61.297 37.5038C60.4997 37.7777 60.4766 38.9601 60.9458 39.6588C61.415 40.3575 62.1841 40.8181 62.643 41.5245C63.084 42.2001 63.1968 43.0293 63.2916 43.8304C65.2273 60.0717 63.9608 76.6124 66.5604 92.7615C66.9142 94.9625 67.4988 97.3989 69.3806 98.5992C70.6368 99.4028 72.211 99.4694 73.7031 99.5129C82.6967 99.7765 91.6904 100.038 100.684 100.301C105.517 100.442 110.401 100.58 115.144 99.6434C117.166 99.2442 119.259 98.5864 120.635 97.056C121.922 95.6279 122.391 93.6649 122.809 91.7889C123.376 89.2322 123.93 86.6678 124.212 84.0676C124.55 80.9478 124.496 77.7999 124.617 74.6647C124.791 70.1092 125.329 65.5767 125.868 61.0519C126.514 55.6108 127.163 50.1698 127.809 44.7313C127.934 43.6768 128.073 42.584 128.644 41.6883C129.596 40.1962 131.749 39.0189 131.226 37.3298C130.86 36.1423 129.388 35.7763 128.155 35.6151C107.227 32.8664 85.9066 33.107 65.0452 36.3291C63.6865 36.539 62.3302 36.7616 60.974 36.9843" fill="#8EB55A"/>
<path d="M61.1944 37.1327C60.5329 37.3912 60.2176 38.0183 60.2535 38.7093C60.2945 39.5001 60.7355 40.0938 61.2867 40.6313C61.5892 40.9256 61.9174 41.1995 62.1763 41.5296C62.4686 41.8981 62.6327 42.3332 62.7378 42.7862C62.9711 43.7895 63.0275 44.849 63.1326 45.8702C63.5736 50.1442 63.8145 54.4335 63.9838 58.7255C64.3196 67.3093 64.3658 75.9111 65.1477 84.4719C65.3425 86.5962 65.5835 88.7153 65.8809 90.8267C66.1296 92.5772 66.3296 94.402 66.9859 96.0578C67.5961 97.5909 68.6242 98.8526 70.2163 99.4208C71.0828 99.7304 72.016 99.82 72.9287 99.8635C73.9773 99.9147 75.0259 99.93 76.0744 99.9608C84.8169 100.217 93.5618 100.496 102.307 100.726C106.537 100.836 110.801 100.849 114.974 100.061C116.672 99.7407 118.425 99.2749 119.848 98.2537C121.271 97.2326 122.135 95.6765 122.648 93.9899C123.227 92.0782 123.596 90.0742 123.971 88.1138C124.378 85.9768 124.665 83.8244 124.786 81.6516C124.909 79.4609 124.909 77.2675 124.983 75.0768C125.058 72.886 125.211 70.7541 125.414 68.5992C125.819 64.274 126.378 59.9642 126.891 55.6518C127.147 53.4841 127.406 51.3189 127.662 49.1512C127.788 48.0916 127.914 47.0295 128.042 45.97C128.16 44.9693 128.224 43.9353 128.501 42.9602C128.952 41.3786 130.362 40.552 131.226 39.2365C131.588 38.6862 131.777 38.0464 131.639 37.3912C131.49 36.6798 130.965 36.1321 130.331 35.8096C129.698 35.4871 128.97 35.3361 128.255 35.2389C127.178 35.093 126.096 34.9625 125.017 34.8371C122.878 34.5862 120.738 34.3687 118.594 34.1819C110.019 33.432 101.399 33.1761 92.7953 33.4192C84.1913 33.6623 75.6232 34.402 67.1141 35.6304C65.0272 35.9324 62.948 36.2703 60.8688 36.6106C60.3817 36.69 60.5893 37.4296 61.0739 37.3503C69.4087 35.9836 77.7742 34.9573 86.209 34.4685C94.5745 33.9848 102.966 33.972 111.334 34.4301C115.541 34.6605 119.74 35.0111 123.927 35.4794C124.973 35.5972 126.019 35.72 127.065 35.8531C127.888 35.958 128.734 36.0297 129.526 36.2984C130.149 36.5108 130.77 36.905 130.9 37.596C131.021 38.2281 130.636 38.8091 130.247 39.2723C129.772 39.8328 129.224 40.3267 128.757 40.8923C128.219 41.545 127.865 42.2744 127.678 43.101C127.462 44.0403 127.393 45.0154 127.278 45.97L126.898 49.1512C126.401 53.3458 125.901 57.538 125.404 61.7326C124.904 65.9376 124.422 70.1502 124.245 74.3858C124.158 76.5074 124.155 78.6316 124.065 80.7533C123.976 82.8749 123.758 84.9966 123.383 87.0978C123.03 89.0787 122.627 91.0672 122.125 93.0174C121.694 94.6912 121.048 96.3547 119.646 97.4578C118.294 98.5199 116.564 98.978 114.905 99.3005C112.9 99.6869 110.865 99.8789 108.824 99.9633C104.622 100.137 100.407 99.9096 96.2076 99.7867C91.921 99.6613 87.6344 99.5359 83.3478 99.4105C81.2045 99.3491 79.0612 99.2851 76.9179 99.2237C75.8463 99.193 74.7746 99.1623 73.703 99.129C72.7928 99.1008 71.8699 99.0753 70.9828 98.8526C67.3782 97.9492 67.0577 93.6726 66.627 90.627C65.4477 82.2889 65.2272 73.856 64.9785 65.4513C64.8529 61.2464 64.7247 57.0415 64.4683 52.8417C64.3401 50.7456 64.1812 48.6496 63.9761 46.5586C63.8761 45.5528 63.7735 44.5496 63.6453 43.5463C63.5325 42.6838 63.3633 41.8214 62.8224 41.115C62.3455 40.4931 61.602 40.0503 61.2175 39.3619C60.997 38.9652 60.8483 38.0925 61.4046 37.8749C61.861 37.6958 61.661 36.9536 61.1995 37.1353H61.1944V37.1327Z" fill="#8EB55A"/>
<path d="M75.2336 4.70142C74.2978 4.37894 73.3261 4.0488 72.3417 4.14605C71.3572 4.2433 70.3522 4.8908 70.1804 5.86333C69.8958 7.45777 71.7597 8.50196 73.2877 9.03685C92.1646 15.627 110.637 23.374 128.565 32.2189C129.726 32.7922 131.067 33.3808 132.27 32.8997C133.78 32.2957 134.095 29.8976 132.793 28.9251C132.482 28.6922 132.118 28.5412 131.808 28.3109C130.144 27.0594 130.872 24.3926 130.049 22.4808C129.398 20.9734 127.847 20.0904 126.386 19.338C117.21 14.5982 107.647 10.6518 98.0972 6.71046C93.9644 5.00597 89.8342 3.30148 85.7014 1.597C83.5145 0.693567 80.9841 -0.202185 78.8741 0.870158C77.5025 1.56628 76.6411 2.95086 75.8489 4.27145" fill="#8EB55A"/>
<path d="M75.3361 4.33032C74.1901 3.93363 72.9185 3.51902 71.7059 3.88244C70.7675 4.16397 69.924 4.88825 69.7882 5.89661C69.5113 7.96451 71.9648 8.98311 73.5312 9.5308C78.5665 11.2941 83.5761 13.1394 88.5498 15.064C93.5234 16.9886 98.4843 19.0027 103.402 21.0937C108.311 23.1821 113.187 25.3523 118.025 27.5994C120.453 28.728 122.873 29.8746 125.283 31.0442C126.465 31.6175 127.634 32.2189 128.824 32.7717C129.872 33.2605 131.111 33.7135 132.264 33.3092C133.857 32.7538 134.482 30.6168 133.58 29.222C133.051 28.4081 132 28.2341 131.5 27.4049C131.031 26.6243 130.993 25.6492 130.906 24.7688C130.811 23.8142 130.695 22.8417 130.234 21.9843C129.737 21.063 128.906 20.372 128.034 19.8191C127.009 19.1691 125.896 18.647 124.814 18.1019C123.614 17.4979 122.409 16.9067 121.199 16.3283C116.343 14.0019 111.406 11.8521 106.445 9.76113C101.407 7.63948 96.3461 5.57158 91.293 3.48831C90.0137 2.9611 88.7343 2.43388 87.455 1.90411C86.2526 1.40761 85.0579 0.872718 83.8145 0.481146C82.7018 0.130524 81.5071 -0.10749 80.338 0.0358298C79.169 0.17915 78.2101 0.675652 77.4051 1.46647C76.6001 2.25729 76.0668 3.15305 75.5156 4.06927C75.2592 4.49411 75.9258 4.88057 76.1796 4.45572C76.7231 3.55229 77.2769 2.63095 78.0563 1.90411C78.8357 1.17727 79.874 0.770346 80.9687 0.75755C82.1327 0.744753 83.271 1.07746 84.3554 1.47159C85.5322 1.89899 86.6833 2.40573 87.8396 2.88432C92.7133 4.89592 97.5921 6.89985 102.461 8.92169C107.24 10.9051 112.006 12.9219 116.71 15.0717C119.058 16.144 121.392 17.2496 123.701 18.4013C124.781 18.9387 125.868 19.4685 126.922 20.052C127.798 20.5383 128.693 21.1039 129.29 21.9254C130.406 23.461 129.921 25.4598 130.544 27.1617C130.69 27.5584 130.89 27.927 131.172 28.2443C131.508 28.6231 131.952 28.8406 132.375 29.1043C133.031 29.5137 133.305 30.2559 133.2 31.0109C133.1 31.7224 132.667 32.3878 131.954 32.5977C130.824 32.9329 129.631 32.3162 128.642 31.8299C126.332 30.691 124.012 29.57 121.684 28.467C117.064 26.2788 112.413 24.1648 107.727 22.1225C103.068 20.093 98.3766 18.1326 93.6568 16.2464C88.9112 14.3499 84.135 12.5277 79.333 10.7823C78.1229 10.3421 76.9103 9.90701 75.6976 9.47705C74.6362 9.10084 73.521 8.79116 72.5057 8.30234C71.7853 7.95683 70.9213 7.46289 70.6214 6.67463C70.2778 5.77632 70.9444 4.95479 71.7725 4.65791C72.8775 4.26378 74.0696 4.69886 75.1233 5.06228C75.5925 5.22351 75.7925 4.48388 75.3284 4.32264L75.3361 4.33032Z" fill="#8EB55A"/>
<path d="M96.0051 5.29261C96.3282 4.00017 97.7177 3.20167 99.0509 3.12489C100.384 3.04811 101.679 3.53182 102.925 4.00785C105.783 5.09811 108.639 6.19092 111.498 7.28118C112.885 7.81095 114.331 8.38167 115.297 9.5052C116.264 10.6287 116.551 12.4868 115.513 13.5438C115.4 13.6589 115.262 13.769 115.1 13.7869C114.98 13.7997 114.862 13.7613 114.749 13.7204C113.664 13.3237 112.705 12.5917 112.039 11.6499C111.739 11.225 111.495 10.7593 111.131 10.3882C110.595 9.84559 109.857 9.56663 109.139 9.30302C106.634 8.37912 104.127 7.45521 101.622 6.53387C101.158 6.3624 100.681 6.19092 100.187 6.21396C99.6918 6.23699 99.1791 6.51595 99.0304 6.9843C98.3792 6.71558 97.728 6.44429 97.0768 6.17557C96.7255 6.02969 96.3538 5.86845 96.1436 5.5511C95.9333 5.23375 95.9821 4.71933 96.3333 4.57345" fill="#8EB55A"/>
<path d="M96.3743 5.39498C96.6819 4.25354 97.8818 3.59068 99.0047 3.51135C100.581 3.4013 102.099 4.10254 103.537 4.65023C105.086 5.24143 106.634 5.83262 108.18 6.42382C109.726 7.01501 111.165 7.50128 112.611 8.13854C113.78 8.65552 115.013 9.37212 115.533 10.6031C115.746 11.1073 115.849 11.6857 115.754 12.2283C115.705 12.5073 115.608 12.7709 115.454 13.0089C115.385 13.1164 115.303 13.2187 115.205 13.3057C115.033 13.4593 114.849 13.3544 114.659 13.275C114.046 13.0191 113.482 12.6455 113.005 12.1848C112.495 11.6908 112.167 11.0945 111.749 10.5289C110.86 9.33117 109.326 8.96007 107.988 8.46869C106.237 7.82375 104.489 7.17881 102.738 6.53387C101.953 6.24467 101.099 5.80703 100.243 5.8275C99.5431 5.84286 98.9073 6.21396 98.6586 6.88193L99.1329 6.61321C98.4689 6.3368 97.7997 6.07064 97.1383 5.78655C96.9101 5.68674 96.6204 5.57157 96.4768 5.35659C96.3794 5.21071 96.3564 4.99062 96.5281 4.9036C96.9691 4.67838 96.5794 4.01553 96.141 4.24074C95.3642 4.63743 95.5872 5.67139 96.1692 6.12182C96.5256 6.39567 96.9665 6.54154 97.3793 6.71046C97.8972 6.92544 98.4125 7.13786 98.9304 7.35284C99.1329 7.4373 99.338 7.25815 99.4047 7.08411C99.6687 6.37007 100.674 6.60553 101.199 6.78468C102.03 7.0662 102.848 7.38867 103.671 7.69323C105.322 8.30234 106.973 8.90889 108.621 9.518C109.306 9.77137 110.049 9.99147 110.631 10.4521C111.213 10.9128 111.541 11.6652 112.016 12.2436C112.464 12.7913 113.023 13.2597 113.636 13.618C114.213 13.9558 115.026 14.4318 115.641 13.9456C116.643 13.1548 116.736 11.6448 116.325 10.5264C115.846 9.21344 114.741 8.32793 113.521 7.71882C112.07 6.99454 110.495 6.4878 108.983 5.9094C107.355 5.28749 105.729 4.66559 104.101 4.04624C102.473 3.42689 100.622 2.54137 98.7868 2.76403C97.3972 2.93295 96.0179 3.77751 95.6359 5.19024C95.5077 5.66883 96.2487 5.87101 96.3769 5.39498H96.3743Z" fill="#8EB55A"/>
<path d="M70.9699 40.685C70.7673 46.0288 70.752 51.3803 70.9237 56.7241C70.9289 56.8521 70.934 56.9852 70.9981 57.0952C71.2057 57.4458 71.7287 57.2692 72.1236 57.1669C72.8978 56.9621 73.7285 57.2309 74.5155 57.085C75.4795 56.9058 76.241 56.115 76.6358 55.2218C77.0306 54.3286 77.1178 53.3305 77.1767 52.3528C77.3613 49.2382 77.3049 46.1056 77.0075 42.9986C76.9793 42.6992 76.946 42.3921 76.8152 42.1208C76.646 41.7676 76.3307 41.5066 75.9948 41.3044C74.472 40.3728 72.5671 40.4265 70.7827 40.511C71.398 41.3556 72.0159 42.2027 72.6312 43.0473C72.7824 43.2571 72.9388 43.4695 73.0157 43.7152C73.1029 43.984 73.0901 44.2757 73.0773 44.5572C72.9465 47.6975 72.9055 50.8429 72.9568 53.9882C72.9568 54.0855 72.9619 54.1853 73.0106 54.2672C73.1491 54.5052 73.5208 54.4182 73.7413 54.2518C74.6745 53.548 74.7206 52.1916 74.6822 51.0246C74.6155 48.9874 74.5489 46.9476 74.4797 44.9104C74.4668 44.5342 74.4515 44.1452 74.2694 43.815C74.0874 43.4849 73.6823 43.2494 73.3311 43.38" fill="#F6F5F1"/>
<path d="M78.915 40.7439C79.0125 46.254 79.0766 51.7668 79.1073 57.2769C79.9457 57.1976 80.7917 57.2053 81.6301 57.2974C81.83 51.754 81.8711 46.2054 81.7531 40.6594C80.8635 40.5955 79.9687 40.598 79.0791 40.6722" fill="#F6F5F1"/>
<path d="M87.8601 47.5363L90.6828 47.4492C91.0135 45.7831 90.9366 44.0377 90.4623 42.4049C90.3367 41.9749 90.1752 41.5373 89.847 41.2302C89.5034 40.9077 89.024 40.7746 88.5625 40.685C87.778 40.534 86.9756 40.4777 86.1757 40.5187C85.8578 40.534 85.5322 40.5673 85.2527 40.7183C84.9605 40.8744 84.7451 41.1406 84.5708 41.4247C83.8196 42.6506 83.7786 44.1657 83.7606 45.6014C83.7273 48.1505 83.694 50.7021 83.6581 53.2512C83.6427 54.431 83.6914 55.7669 84.5708 56.5526C84.8861 56.8342 85.2835 57.0159 85.6886 57.1362C86.85 57.4868 88.1421 57.3844 89.2343 56.8546C89.3829 56.783 89.5598 56.7011 89.706 56.7804C89.8111 56.8367 89.8598 56.9596 89.929 57.0568C90.1162 57.3255 90.5084 57.4305 90.8058 57.2923C90.8187 54.541 90.8161 51.7898 90.7981 49.0411C89.6496 48.8466 88.4754 48.7903 87.314 48.8696C87.3063 49.5939 87.3012 50.3182 87.2935 51.0425C87.2935 51.109 87.2935 51.1858 87.3448 51.2319C87.4345 51.3138 87.5755 51.2268 87.6986 51.2216C87.9601 51.2088 88.0652 51.5467 88.0857 51.8077C88.1523 52.6113 88.1882 53.5148 87.655 54.1213C87.5268 54.2697 87.355 54.3952 87.1576 54.4054C86.6807 54.4284 86.4705 53.8193 86.4167 53.3458C86.0834 50.3105 86.127 47.2368 86.5449 44.2117C86.6038 43.792 86.832 43.2494 87.2473 43.3288C87.6011 43.3979 87.6857 43.856 87.6909 44.2143C87.7088 45.2738 87.7293 46.3334 87.7473 47.3929" fill="#F6F5F1"/>
<path d="M98.7305 43.4644L98.4228 57.0799C99.3381 57.2641 100.279 57.3127 101.207 57.2283C101.299 52.7521 101.312 48.2733 101.24 43.7971C102.035 43.7613 102.827 43.7255 103.622 43.6922C103.709 42.6736 103.65 41.6422 103.45 40.6415C101.13 40.6159 98.8099 40.5903 96.4897 40.5648C96.6179 41.4912 96.6205 42.433 96.5026 43.3595C97.2153 43.4107 97.9255 43.4619 98.6382 43.5131" fill="#F6F5F1"/>
<path d="M106.319 40.8028C105.045 46.2796 103.978 51.8026 103.122 57.3588C104.135 57.4689 105.16 57.4817 106.178 57.3972C106.263 56.719 106.381 56.0485 106.537 55.383C106.652 54.8942 106.968 54.2902 107.457 54.3952C107.824 54.4745 107.973 54.9019 108.057 55.2653C108.221 55.9614 108.385 56.6576 108.552 57.3537C109.483 57.3307 110.416 57.3307 111.347 57.3537C110.444 51.8282 109.598 46.295 108.808 40.7516C108.211 40.7004 107.611 40.6492 107.014 40.6006C106.845 40.5852 106.665 40.575 106.514 40.6518C106.358 40.7337 106.263 40.8949 106.191 41.0561C105.735 42.0645 105.855 43.2443 106.158 44.309C106.46 45.3737 106.929 46.3923 107.165 47.4723C107.468 48.862 107.368 50.3361 106.881 51.6721C107.229 51.7514 107.58 51.8333 107.929 51.9126C108.047 51.9408 108.185 51.9613 108.275 51.8794C108.352 51.8103 108.357 51.6925 108.355 51.5902C108.327 50.5434 107.998 49.5044 107.421 48.6291" fill="#F6F5F1"/>
<path d="M112.618 40.6876C112.375 46.0928 112.354 51.5083 112.557 56.9161C112.562 57.0568 112.577 57.2181 112.685 57.3051C112.769 57.3742 112.89 57.3793 113 57.3818C114.808 57.4151 116.618 57.4509 118.425 57.4842C118.351 56.5015 118.274 55.5212 118.199 54.5385C117.323 54.5078 116.443 54.4745 115.566 54.4438C115.279 49.8678 115.202 45.279 115.338 40.6953C114.492 40.6671 113.649 40.639 112.803 40.6083" fill="#F6F5F1"/>
<path d="M74.6617 65.3438C74.6668 64.6528 74.572 63.9618 74.3797 63.2989C74.3079 63.0481 74.172 62.7615 73.9131 62.7256C73.7849 62.7077 73.6567 62.7615 73.5542 62.8383C73.1363 63.1454 73.0876 63.7391 73.0747 64.2561C73.044 65.5946 73.0132 66.9331 72.9799 68.2716C72.9466 69.733 72.9132 71.2122 73.2337 72.6403C73.2875 72.8835 73.3593 73.1368 73.5362 73.316C73.7131 73.4951 74.0233 73.5617 74.2131 73.3953C74.3694 73.2597 74.3848 73.0268 74.3925 72.8195C74.413 72.1182 74.431 71.4144 74.4515 70.7132C75.2206 70.749 75.9897 70.7849 76.7589 70.8207C76.8178 70.8232 76.8845 70.8284 76.9306 70.8642C76.987 70.9077 77.0024 70.9845 77.0152 71.0536C77.2511 72.5073 77.128 74.094 76.2692 75.2943C75.4103 76.4946 73.6824 77.1319 72.3825 76.4358C71.6262 76.0314 71.1237 75.2534 70.8648 74.4344C70.6058 73.6154 70.5674 72.7478 70.5289 71.8905C70.4905 71.051 70.452 70.209 70.4136 69.3696C70.3238 67.404 70.2341 65.4334 70.3828 63.473C70.4546 62.5158 70.6058 61.5049 71.2211 60.7678C71.8313 60.0358 72.8235 59.6954 73.7772 59.7134C74.4489 59.7262 75.1386 59.913 75.6334 60.366C76.223 60.9034 76.4538 61.7198 76.6332 62.4953C76.8614 63.4704 77.0511 64.4864 76.8563 65.4692C76.0949 65.4641 75.3334 65.4564 74.5694 65.4513" fill="#F6F5F1"/>
<path d="M84.5913 60.0998C84.8246 65.5255 84.8579 70.9589 84.699 76.3871C86.4449 76.6251 88.2165 76.6815 89.9752 76.5586C89.9573 75.627 89.9137 74.6929 89.8496 73.7639L87.4627 73.7562L87.2499 69.9608L89.142 69.9991C89.2215 69.9991 89.3112 69.9991 89.365 69.9403C89.4112 69.8917 89.4163 69.82 89.4214 69.7534C89.4778 68.804 89.5317 67.8545 89.5881 66.905C89.5932 66.8205 89.5958 66.7258 89.5394 66.6618C89.4881 66.603 89.4035 66.5876 89.324 66.5774C88.7728 66.5032 88.2139 66.4776 87.6576 66.5032C87.5268 66.5083 87.3755 66.5083 87.2935 66.4059C87.2397 66.3394 87.232 66.2472 87.2294 66.1602C87.1833 65.0648 87.2038 63.9695 87.2935 62.8766C88.3011 62.9841 89.3112 63.0507 90.3239 63.0737L90.0444 60.0793C88.2575 59.8336 86.4475 59.7517 84.6451 59.8388" fill="#F6F5F1"/>
<path d="M99.8123 60.2073C99.7866 65.6202 99.761 71.0305 99.7354 76.4434C100.425 76.5023 101.117 76.5586 101.809 76.6149C101.95 76.6251 102.115 76.6251 102.199 76.5125C102.25 76.4409 102.253 76.3487 102.253 76.2592V69.1085C102.907 69.8942 103.163 70.9282 103.402 71.9237C103.768 73.4593 104.132 74.9923 104.499 76.5279C105.342 76.574 106.188 76.62 107.032 76.6661C106.791 71.289 106.77 65.9043 106.973 60.5272C106.978 60.4197 106.978 60.302 106.916 60.2124C106.829 60.087 106.655 60.0665 106.501 60.0563C105.865 60.0179 105.232 59.9795 104.596 59.9411C104.465 62.4134 104.391 64.8857 104.373 67.3605C103.514 64.9497 102.979 62.439 102.443 59.9386C101.563 59.9565 100.681 59.9386 99.802 59.8848" fill="#F6F5F1"/>
<path d="M108.373 60.0435C108.339 62.8894 108.306 65.7379 108.273 68.5839C108.252 70.3779 108.232 72.1822 108.485 73.9609C108.601 74.7645 108.816 75.6373 109.475 76.1158C109.908 76.4332 110.462 76.5228 110.995 76.5893C111.724 76.684 112.472 76.7531 113.185 76.574C113.898 76.3948 114.577 75.9213 114.81 75.2278C114.918 74.913 114.928 74.5726 114.936 74.2399C115.064 69.5103 115.192 64.7731 114.926 60.0486C114.123 60.0691 113.323 60.0921 112.521 60.1126C112.423 64.1435 112.326 68.1744 112.226 72.2053C112.218 72.5533 112.208 72.9091 112.082 73.2341C112.026 73.3774 111.941 73.5207 111.806 73.5949C111.583 73.7127 111.293 73.5975 111.136 73.4004C110.98 73.2034 110.926 72.9449 110.88 72.6992C110.657 71.4451 110.572 70.1732 110.516 68.9012C110.385 65.9452 110.401 62.9841 110.565 60.0282C109.824 59.9539 109.07 59.9821 108.337 60.1152" fill="#F6F5F1"/>
<path d="M116.474 60.1612C117.11 65.5793 116.19 71.0843 116.766 76.5074L119.074 76.3846C119.03 74.3755 118.987 72.3691 118.943 70.36C120.212 70.5724 121.709 70.2244 122.337 69.1034C122.709 68.4405 122.709 67.6395 122.699 66.8768C122.681 65.5281 122.663 64.1793 122.645 62.828C122.635 62.0833 122.578 61.2361 121.996 60.7703C121.758 60.5784 121.458 60.4811 121.163 60.3967C119.681 59.9744 118.12 59.826 116.584 59.9616C117.066 60.9597 117.682 61.8964 118.405 62.7359C118.541 62.892 118.682 63.0507 118.751 63.2477C118.81 63.4167 118.807 63.5984 118.805 63.7775C118.792 64.7756 118.779 65.7712 118.769 66.7693C118.766 67.0713 118.789 67.4296 119.046 67.5909C119.287 67.7419 119.628 67.619 119.802 67.3938C119.976 67.1686 120.03 66.8743 120.063 66.5902C120.168 65.7354 120.176 64.8729 120.158 64.0104C120.151 63.5856 120.117 63.1147 119.812 62.8178C119.507 62.5209 118.851 62.6207 118.82 63.043" fill="#F6F5F1"/>
<path d="M86.0321 79.1512C86.8602 80.9606 87.5806 82.8186 88.1882 84.7125C88.3369 85.1783 88.4805 85.6466 88.5472 86.1304C88.6189 86.6601 88.5959 87.1976 88.5779 87.7299C88.4984 90.1561 88.5446 92.5874 88.7164 95.0111C88.7215 95.093 88.7292 95.1826 88.783 95.2465C88.842 95.3182 88.9369 95.3412 89.0266 95.3566C89.7265 95.4922 90.4443 95.5357 91.1545 95.4897C91.6262 91.8836 90.6776 88.1471 91.5365 84.6127C91.7288 83.8219 92.0082 83.0566 92.2877 82.2914C92.6671 81.2549 93.0466 80.2209 93.4234 79.1844C92.6979 79.1742 91.9698 79.164 91.2442 79.1537C91.1442 79.1537 91.0391 79.1537 90.952 79.2024C90.8597 79.2561 90.8084 79.3559 90.7648 79.4532C90.3597 80.3182 90.1008 81.2498 90.0059 82.1993C89.7137 81.301 89.4214 80.4001 89.1291 79.5018C89.0932 79.3943 89.0548 79.2817 88.9676 79.21C88.8728 79.1307 88.7394 79.1205 88.6164 79.1153C87.7293 79.0718 86.8397 79.1077 85.9578 79.2203" fill="#F6F5F1"/>
<path d="M95.7487 79.5479C95.7128 79.9957 95.8307 80.4538 96.0743 80.8326C96.2948 80.5076 96.6999 80.3131 97.0947 80.3438C97.4895 80.3745 97.8561 80.6304 98.0228 80.9887C98.1304 81.2191 98.1561 81.4801 98.1458 81.7335C98.1048 82.7214 97.5485 83.6069 96.9691 84.408C96.5973 84.9249 96.2076 85.4317 95.8948 85.987C95.5769 86.5501 95.3385 87.2129 95.5077 87.8374C96.9614 87.822 98.415 87.8528 99.8661 87.9321C99.9225 87.4535 99.9328 86.9672 99.8943 86.4861C99.1585 86.5961 98.4022 86.5578 97.6818 86.3735C98.7227 84.9377 99.3841 83.2281 99.579 81.4673C99.6328 80.9759 99.6431 80.4462 99.3739 80.0316C99.056 79.5427 98.4304 79.3508 97.8484 79.3047C97.1408 79.251 96.4204 79.361 95.7615 79.6272" fill="#F6F5F1"/>
<path d="M105.55 79.8089C105.012 79.553 104.455 79.3073 103.866 79.2228C103.276 79.1384 102.635 79.2331 102.163 79.5965C101.609 80.0213 101.371 80.7354 101.235 81.4187C100.904 83.0515 100.984 84.7637 101.463 86.3581C101.597 86.8009 101.771 87.2539 102.109 87.5687C102.361 87.8016 102.684 87.9423 103.007 88.06C103.437 88.2187 103.912 88.3441 104.353 88.2162C105.106 87.9935 105.452 87.1361 105.614 86.3709C105.855 85.2244 105.911 84.0471 105.968 82.8775C106.014 81.9152 106.055 80.9196 105.701 80.0239" fill="#F6F5F1"/>
<path d="M112.503 79.3303L112.703 83.6299C113.68 83.1948 114.828 82.9543 115.813 83.374C116.797 83.7937 117.451 85.0657 116.91 85.987C116.797 86.1815 116.638 86.3504 116.461 86.4886C115.613 87.1464 114.267 87.0363 113.539 86.2481C113.472 86.1764 113.405 86.0971 113.316 86.0536C113.113 85.9614 112.867 86.1073 112.759 86.3044C112.523 86.7343 112.777 87.2999 113.185 87.5738C113.592 87.8476 114.105 87.8988 114.592 87.9372C115.461 88.0037 116.42 88.0242 117.102 87.4817C118.002 86.7676 118.02 85.4317 117.951 84.2851C117.928 83.9191 117.902 83.5378 117.73 83.2128C117.448 82.6881 116.843 82.4245 116.264 82.2837C115.646 82.1353 115.002 82.0815 114.369 82.1276C114.249 82.1353 114.118 82.1455 114.015 82.0841C113.867 81.992 113.839 81.7898 113.826 81.6158C113.8 81.2447 113.774 80.8736 113.749 80.5025C113.744 80.4231 113.739 80.3387 113.777 80.267C113.836 80.1544 113.974 80.116 114.097 80.093C114.651 79.9855 115.22 79.9548 115.782 80.0008C116.074 80.0239 116.384 80.0648 116.641 79.9241C116.897 79.7833 117.01 79.3687 116.766 79.2049C116.689 79.1537 116.597 79.1384 116.505 79.1256C115.174 78.9311 113.813 78.9515 112.49 79.1844" fill="#F6F5F1"/>
<path d="M95.6411 90.2585L95.636 90.9214C95.636 90.9725 95.6411 91.0314 95.6821 91.057C95.718 91.0775 95.7642 91.0647 95.8052 91.0519C95.9539 90.9981 96.1051 90.9469 96.2538 90.8932C96.3333 91.0212 96.3385 91.1798 96.341 91.3283C96.359 92.3059 96.3743 93.2836 96.3923 94.2612C96.3923 94.3252 96.3923 94.3969 96.3461 94.4429C96.2487 94.5427 96.0872 94.425 95.9462 94.4173C95.7975 94.4097 95.6719 94.5376 95.6309 94.6809C95.5898 94.8243 95.6206 94.9753 95.6514 95.1211C95.6616 95.1647 95.6719 95.2107 95.7001 95.244C95.7488 95.2977 95.8308 95.3003 95.9026 95.2977C96.4743 95.2875 97.0461 95.2747 97.6178 95.2645C97.8152 95.2593 98.028 95.2517 98.1895 95.1391C98.351 95.0264 98.4305 94.768 98.2895 94.6272C98.1715 94.512 97.969 94.5274 97.8485 94.4148C97.7485 94.3201 97.7383 94.164 97.7357 94.0258C97.7126 92.4851 97.6896 90.9444 97.6665 89.4037C96.9948 89.6391 96.3128 89.8823 95.7437 90.3097" fill="#F6F5F1"/>
<path d="M99.1508 89.3832L99.0867 91.1952C100.079 91.057 101.107 91.8427 101.233 92.8357C101.271 93.1351 101.233 93.4525 101.074 93.7084C100.915 93.9643 100.625 94.1486 100.322 94.1307C100.043 94.1153 99.7943 93.9311 99.6328 93.7059C99.4713 93.4806 99.3764 93.2094 99.2867 92.9458C98.9585 93.2708 99.0739 93.8261 99.2918 94.2331C99.3969 94.4301 99.5251 94.6221 99.7071 94.7577C100.202 95.1237 100.948 94.9215 101.363 94.4711C101.779 94.0206 101.938 93.3911 102.04 92.7871C102.135 92.2343 102.15 91.5612 101.697 91.2336C101.443 91.0493 101.112 91.0314 100.804 90.9802C100.494 90.929 100.179 90.8318 99.9558 90.6117C99.7328 90.3916 99.6328 90.023 99.7969 89.7569C99.8174 89.721 99.8456 89.6878 99.8789 89.6673C99.9815 89.6008 100.115 89.6443 100.228 89.6827C100.479 89.7671 100.743 89.8183 101.01 89.8311C101.143 89.8388 101.284 89.8311 101.394 89.7569C101.504 89.6826 101.558 89.5137 101.474 89.4114C101.404 89.3295 101.284 89.3243 101.176 89.3243C100.479 89.3243 99.7841 89.3295 99.0867 89.3295" fill="#F6F5F1"/>
<path d="M98.7662 89.3832L98.7021 91.1952C98.6944 91.3846 98.8842 91.6021 99.0867 91.5791C99.8302 91.4921 100.594 91.9476 100.807 92.6821C100.907 93.0302 100.892 93.6112 100.461 93.7314C99.9891 93.8645 99.7661 93.1633 99.6559 92.8408C99.5687 92.5823 99.2175 92.4441 99.0124 92.6719C98.2766 93.4883 98.9508 95.0392 99.9584 95.2849C101.145 95.5741 102.004 94.5069 102.279 93.4883C102.532 92.5567 102.717 91.1517 101.574 90.7396C101.163 90.5912 100.294 90.6833 100.117 90.1689C100.097 90.1126 100.105 90.0896 100.094 90.0409C100.084 89.9898 100.181 89.8899 100.063 89.977C99.9789 90.0384 100.03 90.0179 100.12 90.0461C100.184 90.0665 100.246 90.087 100.312 90.1024C100.622 90.1843 100.989 90.2508 101.309 90.1868C101.994 90.0486 102.117 89.0607 101.356 88.9481C101.01 88.8969 100.635 88.9353 100.287 88.9379C99.8866 88.9379 99.4867 88.9379 99.0841 88.9404C98.5893 88.9404 98.5893 89.7108 99.0841 89.7082C99.6251 89.7082 100.163 89.7057 100.704 89.7031H101.071C101.04 89.7031 101.233 89.7108 101.24 89.7031L101.145 89.4395H101.086C100.984 89.4037 100.825 89.4267 100.712 89.4062C100.581 89.3832 100.453 89.3423 100.325 89.3039C99.8687 89.1708 99.4661 89.3346 99.3533 89.8234C99.2508 90.2687 99.4687 90.7217 99.8199 90.9904C100.194 91.2745 100.633 91.3155 101.081 91.3999C101.486 91.4767 101.684 91.684 101.704 92.1012C101.725 92.5183 101.638 92.9304 101.525 93.322C101.412 93.7135 101.233 94.1332 100.881 94.3661C100.574 94.5709 100.133 94.6502 99.8481 94.3661C99.6148 94.1332 99.2815 93.5113 99.5533 93.2093L98.9098 93.0404C99.1328 93.6956 99.5097 94.4839 100.317 94.5069C101.125 94.5299 101.615 93.7826 101.625 93.0532C101.64 91.7531 100.363 90.6552 99.0841 90.8036L99.4687 91.1875L99.5328 89.3755C99.5507 88.8816 98.7816 88.8816 98.7637 89.3755V89.3832H98.7662Z" fill="#F6F5F1"/>
<path d="M104.724 89.7108C104.845 91.4895 104.963 93.2657 105.083 95.0444C105.091 95.1646 105.101 95.2875 105.165 95.3899C105.229 95.4922 105.363 95.5588 105.47 95.505C105.586 95.4487 105.609 95.2977 105.617 95.1698C105.673 94.2535 105.681 93.3322 105.64 92.416C105.634 92.2727 105.64 92.1037 105.755 92.0218C105.955 91.8811 106.193 92.1421 106.301 92.3622C106.393 92.5516 106.486 92.741 106.578 92.9304C106.714 92.6617 106.85 92.3904 106.986 92.1217C107.016 92.0577 107.052 91.9911 107.114 91.9579C107.224 91.899 107.368 91.9758 107.424 92.0858C107.48 92.1959 107.475 92.329 107.47 92.4518C107.445 93.1812 107.506 93.9132 107.65 94.6272C107.706 94.9036 107.798 95.2107 108.052 95.3361C108.342 93.6623 108.306 91.9527 108.273 90.2559C108.27 90.0921 108.262 89.9181 108.178 89.7799C108.093 89.6417 107.893 89.5572 107.757 89.6468C107.675 89.7031 107.637 89.8029 107.603 89.8976C107.398 90.4632 107.139 91.0109 106.827 91.5253C106.773 91.6149 106.668 91.7173 106.581 91.6584C106.552 91.6379 106.534 91.6072 106.519 91.5765C106.273 91.0723 106.027 90.5682 105.781 90.0665C105.673 89.8439 105.545 89.6033 105.317 89.5035C105.088 89.4037 104.75 89.5649 104.786 89.8106" fill="#F6F5F1"/>
<path d="M104.34 89.7108C104.412 90.778 104.483 91.8452 104.555 92.9099L104.658 94.4506C104.686 94.8754 104.624 95.4359 104.976 95.7456C105.301 96.0322 105.786 95.9017 105.937 95.5025C106.088 95.1032 106.032 94.5632 106.04 94.1384C106.05 93.6419 106.047 93.1428 106.029 92.6463C106.029 92.6002 106.053 92.352 106.019 92.3213C106.024 92.2394 105.963 92.2522 105.832 92.3648C105.868 92.3981 105.899 92.4364 105.924 92.48C106.053 92.677 106.14 92.9099 106.242 93.1223C106.365 93.3757 106.781 93.3706 106.906 93.1223C107.009 92.9201 107.111 92.718 107.211 92.5158C107.245 92.4492 107.324 92.3494 107.329 92.2829C107.393 92.1831 107.311 92.1805 107.081 92.2752V92.3597C107.022 92.5337 107.075 92.8434 107.081 93.0302C107.086 93.2401 107.099 93.4525 107.119 93.6623C107.183 94.3303 107.209 95.2849 107.855 95.6688C108.05 95.7866 108.378 95.6867 108.419 95.4385C108.586 94.4532 108.657 93.4576 108.67 92.4569C108.678 91.9553 108.673 91.4511 108.665 90.9495C108.657 90.5247 108.737 89.9642 108.503 89.5854C108.319 89.286 107.909 89.1222 107.588 89.3013C107.234 89.4958 107.16 90.0051 107.006 90.3455C106.911 90.5554 106.811 90.7627 106.701 90.9648C106.655 91.0519 106.573 91.1491 106.545 91.2413C106.506 91.3718 106.381 91.318 106.668 91.3564C106.922 91.3922 106.842 91.3718 106.768 91.2182C106.542 90.755 106.322 90.2918 106.091 89.8311C105.912 89.4728 105.622 89.0914 105.181 89.0863C104.768 89.0812 104.391 89.3806 104.399 89.8055C104.407 90.2994 105.176 90.2994 105.168 89.8055C105.168 89.9207 105.109 89.8055 105.186 89.8592C105.247 89.9027 105.289 89.9693 105.327 90.0307C105.435 90.2022 105.514 90.3967 105.604 90.5784C105.727 90.8292 105.85 91.0826 105.973 91.3334C106.063 91.5151 106.132 91.7352 106.268 91.8888C106.963 92.6617 107.642 90.8139 107.814 90.3916C107.855 90.2943 107.893 90.1945 107.929 90.0947C107.947 90.0435 107.965 89.9949 107.986 89.9463L107.855 89.9898C107.834 90.0205 107.88 90.2559 107.883 90.3071C107.886 90.4428 107.888 90.5784 107.891 90.7115C107.901 91.2131 107.906 91.7173 107.904 92.2189C107.896 93.2247 107.842 94.2331 107.675 95.2286L108.239 94.9983C108.078 94.901 108.05 94.6912 108.014 94.5197C107.957 94.2535 107.916 93.9823 107.891 93.711C107.839 93.2119 107.896 92.7026 107.842 92.2061C107.798 91.8069 107.434 91.423 107.006 91.5791C106.796 91.6559 106.693 91.8299 106.596 92.0193C106.476 92.2547 106.358 92.4927 106.24 92.7282H106.904C106.727 92.3673 106.578 91.9195 106.219 91.6942C105.86 91.469 105.424 91.6354 105.296 92.0193C105.168 92.4032 105.271 92.9201 105.276 93.3271C105.281 93.8057 105.271 94.2842 105.25 94.7628C105.245 94.8729 105.217 94.9983 105.232 95.1058C105.232 95.1442 105.227 95.18 105.222 95.2184C105.419 95.2286 105.501 95.1672 105.465 95.0367C105.494 94.942 105.447 94.7756 105.442 94.6809L105.419 94.3252L105.317 92.7845C105.247 91.7582 105.178 90.7294 105.109 89.7031C105.076 89.2117 104.307 89.2092 104.34 89.7031V89.7108Z" fill="#F6F5F1"/>
<path d="M110.321 89.7236L109.324 95.0623C109.306 95.157 109.288 95.2568 109.314 95.3515C109.373 95.5741 109.672 95.6714 109.883 95.5741C110.093 95.4769 110.213 95.2465 110.252 95.0162C110.29 94.7859 110.254 94.553 110.239 94.3226C110.226 94.1332 110.237 93.9157 110.375 93.7877C110.575 93.6009 110.924 93.7212 111.083 93.9439C111.242 94.1665 111.265 94.4532 111.313 94.7219C111.362 94.9906 111.459 95.2798 111.698 95.418C111.78 95.4666 111.88 95.4922 111.975 95.4718C112.226 95.4206 112.303 95.1032 112.321 94.8498C112.423 93.3757 112.216 91.9015 111.967 90.4453C111.913 90.1228 111.823 89.7594 111.534 89.6084C111.383 89.5291 111.203 89.5291 111.031 89.5291C110.916 89.5291 110.788 89.5342 110.706 89.6161C110.554 89.7645 110.675 90.0154 110.777 90.2022C111.162 90.8932 111.216 91.7122 111.259 92.5004C111.275 92.7564 111.247 93.0814 111.006 93.171C110.849 93.2298 110.67 93.1454 110.562 93.0174C110.454 92.8894 110.408 92.7256 110.362 92.5644C110.175 91.9143 110.001 91.1619 110.388 90.6065" fill="#F6F5F1"/>
<path d="M109.949 89.6238L109.373 92.7077L109.086 94.251C109.011 94.6553 108.791 95.2184 109.006 95.61C109.178 95.9222 109.583 96.0553 109.919 95.9683C110.301 95.8685 110.552 95.4897 110.621 95.1211C110.667 94.8755 110.644 94.6323 110.626 94.3841C110.619 94.2868 110.565 94.0795 110.678 94.0949C110.926 94.1333 110.939 94.8831 111.001 95.07C111.121 95.4334 111.375 95.7789 111.775 95.8505C112.175 95.9222 112.511 95.6432 112.631 95.2696C112.767 94.855 112.734 94.3534 112.729 93.9234C112.723 93.4192 112.688 92.915 112.634 92.4134C112.58 91.9118 112.511 91.4178 112.431 90.9239C112.367 90.5195 112.334 90.0691 112.134 89.7006C111.934 89.332 111.554 89.1657 111.134 89.1529C110.714 89.1401 110.288 89.286 110.252 89.7518C110.234 89.9719 110.326 90.1766 110.426 90.366C110.544 90.5938 110.639 90.819 110.701 91.0698C110.821 91.5458 110.862 92.0526 110.875 92.5414C110.875 92.613 110.857 92.6975 110.865 92.7666C110.878 92.892 110.865 92.7896 110.86 92.7743C110.762 92.5593 110.69 92.3392 110.634 92.1063C110.529 91.6687 110.465 91.2029 110.719 90.8062C110.985 90.389 110.321 90.0026 110.055 90.4197C109.632 91.08 109.765 91.8734 109.965 92.5849C110.067 92.9534 110.201 93.3271 110.57 93.5011C110.896 93.6547 111.293 93.5574 111.49 93.2503C111.67 92.9662 111.652 92.6207 111.631 92.2982C111.606 91.8862 111.572 91.469 111.488 91.0647C111.403 90.6603 111.239 90.3148 111.07 89.9411L111.039 89.8772C111.024 89.7569 110.993 89.7697 110.942 89.9207C110.947 89.9283 111.111 89.9181 111.134 89.9207C111.37 89.9335 111.452 90.0051 111.524 90.2252C111.649 90.6219 111.683 91.0647 111.744 91.4742C111.813 91.9399 111.872 92.4083 111.911 92.8792C111.949 93.3501 111.97 93.8082 111.959 94.274C111.957 94.466 111.959 94.6656 111.934 94.855C111.926 94.9164 111.926 95.0136 111.89 95.0674C111.854 95.1237 111.854 95.1314 111.89 95.0904C111.854 95.0674 111.826 95.0367 111.806 95.0009C111.613 94.727 111.66 94.3098 111.539 94.0027C111.411 93.6751 111.162 93.4192 110.811 93.3373C110.501 93.2657 110.162 93.3859 109.991 93.6572C109.742 94.0514 109.932 94.4813 109.88 94.9036C109.867 94.9983 109.819 95.2593 109.675 95.2235C109.716 95.2338 109.675 95.2465 109.696 95.1646C109.739 95.0137 109.755 94.8447 109.785 94.6912L110.096 93.0302C110.296 91.963 110.496 90.8958 110.693 89.826C110.783 89.3423 110.042 89.135 109.952 89.6212L109.949 89.6238Z" fill="#F6F5F1"/>
<path d="M113.426 89.6571V94.8626C113.426 95.0136 113.426 95.1698 113.487 95.308C113.549 95.4462 113.682 95.5639 113.833 95.5511C113.985 95.5409 114.1 95.4078 114.144 95.2619C114.187 95.116 114.174 94.965 114.167 94.814C114.144 94.3738 114.177 93.9285 114.264 93.496C114.3 93.3194 114.415 93.0993 114.59 93.1454C114.659 93.1633 114.71 93.2221 114.754 93.281C115.243 93.9311 115.472 94.7808 116.09 95.3131C116.236 95.4385 116.497 95.5229 116.587 95.3515C116.61 95.308 116.613 95.2568 116.613 95.2082C116.602 94.8063 116.318 94.4736 116.11 94.1307C115.92 93.8185 115.784 93.4729 115.708 93.1172C115.687 93.0148 115.669 92.9073 115.697 92.805C115.731 92.6847 115.818 92.5926 115.9 92.4979C116.143 92.2163 116.348 91.8862 116.428 91.5228C116.507 91.1593 116.448 90.7524 116.215 90.4581C115.99 90.1715 115.631 90.023 115.279 89.9232C114.785 89.7799 114.269 89.7082 113.751 89.7057C113.803 89.9079 113.882 90.1024 113.99 90.2815C114.041 90.3685 114.105 90.4555 114.2 90.4888C114.331 90.5323 114.467 90.4581 114.6 90.4248C114.869 90.3583 115.164 90.4683 115.356 90.668C115.549 90.8676 115.649 91.1414 115.677 91.4178C115.692 91.5791 115.684 91.748 115.61 91.8939C115.502 92.1063 115.269 92.2291 115.033 92.2675C114.797 92.3059 114.559 92.2675 114.323 92.2291C114.195 92.2087 114.051 92.1805 113.977 92.073C113.928 92.0039 113.918 91.9143 113.91 91.8299C113.869 91.3974 113.831 90.9648 113.79 90.5323" fill="#F6F5F1"/>
<path d="M113.041 89.6571C113.041 91.3743 113.036 93.0891 113.041 94.8063C113.041 95.1263 113.062 95.4641 113.298 95.7072C113.554 95.9708 113.954 96.0118 114.244 95.7763C114.482 95.5818 114.559 95.2926 114.559 94.9983C114.559 94.5632 114.533 94.1435 114.613 93.711C114.61 93.7314 114.656 93.5523 114.651 93.5344L114.669 93.4934C114.444 93.4371 114.38 93.455 114.474 93.5523C114.5 93.6675 114.654 93.8261 114.715 93.9362C114.897 94.251 115.051 94.5837 115.244 94.8908C115.515 95.3208 116.138 96.1474 116.738 95.7379C117.387 95.2952 116.713 94.3892 116.441 93.9387C116.287 93.6828 116.051 93.2708 116.074 92.9611C116.084 92.805 116.256 92.6719 116.351 92.5465C116.464 92.3955 116.564 92.2394 116.643 92.0679C116.982 91.3385 116.897 90.4402 116.218 89.936C115.538 89.4318 114.559 89.332 113.751 89.3192C113.5 89.3167 113.316 89.5675 113.38 89.8055C113.495 90.2201 113.703 90.8036 114.195 90.8702C114.439 90.9034 114.672 90.7294 114.903 90.8164C115.105 90.8906 115.213 91.0954 115.264 91.2899C115.315 91.4844 115.341 91.7198 115.138 91.8325C114.936 91.9451 114.685 91.8964 114.474 91.8657C114.431 91.8606 114.39 91.8529 114.346 91.8452C114.259 91.8248 114.244 91.8197 114.295 91.8325C114.241 91.7634 114.264 91.4895 114.254 91.3999C114.228 91.1107 114.2 90.8241 114.174 90.5349C114.128 90.0461 113.359 90.0435 113.405 90.5349C113.441 90.9316 113.477 91.3283 113.516 91.725C113.549 92.0833 113.623 92.3955 113.99 92.5414C114.564 92.7692 115.426 92.7487 115.838 92.2343C116.272 91.6968 116.051 90.778 115.564 90.3429C115.336 90.1382 115.026 90.0154 114.718 90.0281C114.644 90.0307 114.567 90.0435 114.492 90.0589C114.41 90.0768 114.254 90.0717 114.344 90.1382C114.218 90.0461 114.154 89.7441 114.115 89.6059L113.744 90.0921C114.364 90.0998 115.128 90.1638 115.672 90.5016C116.215 90.8394 116.115 91.4997 115.813 91.9732C115.672 92.1959 115.449 92.375 115.354 92.6233C115.231 92.9432 115.328 93.2964 115.436 93.6086C115.533 93.8901 115.661 94.1589 115.82 94.4097C115.887 94.5172 115.959 94.6195 116.025 94.727C116.066 94.7936 116.108 94.8601 116.141 94.9292C116.174 94.9983 116.179 95.116 116.218 95.1749L116.223 95.2133C116.407 95.1391 116.446 95.0776 116.338 95.0316C116.325 95.006 116.236 94.9343 116.225 94.9241C116.133 94.8294 116.051 94.7296 115.979 94.6195C115.818 94.3815 115.687 94.1256 115.551 93.8722C115.333 93.4627 115.008 92.654 114.421 92.7768C113.833 92.8997 113.818 93.7084 113.785 94.1588C113.762 94.466 113.762 94.7833 113.785 95.093C113.785 95.1135 113.721 95.2389 113.795 95.18C113.854 95.1339 113.823 95.1493 113.81 95.0495C113.787 94.878 113.805 94.6937 113.805 94.5197V89.6596C113.805 89.1657 113.036 89.1657 113.036 89.6596H113.041V89.6571Z" fill="#F6F5F1"/>
<path d="M92.0928 40.813C92.1902 46.3232 92.2543 51.8359 92.2851 57.346C93.1234 57.2667 93.9694 57.2744 94.8078 57.3665C95.0078 51.8231 95.0488 46.2745 94.9309 40.7285C94.0412 40.6646 93.1465 40.6671 92.2569 40.7413" fill="#F6F5F1"/>
<path d="M77.9792 59.8464C77.7357 65.2517 77.7152 70.6671 77.9177 76.0749C77.9228 76.2157 77.9382 76.3769 78.0459 76.4639C78.1305 76.533 78.251 76.5381 78.3612 76.5407C80.1687 76.574 81.9787 76.6098 83.7862 76.6431C83.7118 75.6603 83.6349 74.6801 83.5605 73.6973C82.6837 73.6666 81.8044 73.6333 80.9276 73.6026C80.6404 69.0266 80.5635 64.4378 80.6994 59.8541C79.8534 59.826 79.0099 59.7978 78.1638 59.7671" fill="#F6F5F1"/>
<path d="M94.1926 59.9795C92.9184 65.4564 91.8519 70.9794 90.9956 76.5356C92.0083 76.6456 93.0338 76.6584 94.0516 76.574C94.1362 75.8958 94.2541 75.2252 94.4105 74.5598C94.5259 74.071 94.8412 73.467 95.3309 73.5719C95.6975 73.6513 95.8462 74.0787 95.9308 74.4421C96.0949 75.1382 96.259 75.8343 96.4256 76.5305C97.3563 76.5074 98.2895 76.5074 99.2201 76.533C98.3177 71.0075 97.4717 65.4743 96.682 59.9309C96.0847 59.8797 95.4847 59.8285 94.8874 59.7799C94.7182 59.7645 94.5387 59.7543 94.3875 59.8311C94.2311 59.913 94.1362 60.0742 94.0644 60.2355C93.6081 61.2438 93.7286 62.4236 94.0311 63.4883C94.3336 64.553 94.8028 65.5716 95.0387 66.6516C95.3412 68.0413 95.2412 69.5154 94.7541 70.8514C95.1027 70.9307 95.454 71.0126 95.8027 71.092C95.9206 71.1201 96.059 71.1406 96.1488 71.0587C96.2257 70.9896 96.2308 70.8719 96.2282 70.7695C96.2 69.7227 95.8719 68.6837 95.295 67.8084" fill="#F6F5F1"/>
<path d="M70.9982 79.1793C70.7956 84.5231 70.7803 89.8746 70.952 95.2184C70.9572 95.3464 70.9623 95.4794 71.0264 95.5895C71.2341 95.9401 71.7571 95.7635 72.1519 95.6611C72.9261 95.4564 73.7568 95.7251 74.5439 95.5793C75.5078 95.4001 76.2693 94.6093 76.6641 93.7161C77.0589 92.8229 77.1461 91.8248 77.2051 90.8471C77.3896 87.7325 77.3332 84.5999 77.0358 81.4929C77.0076 81.1935 76.9743 80.8864 76.8436 80.6151C76.6744 80.2619 76.359 80.0008 76.0232 79.7987C74.5003 78.8671 72.5954 78.9208 70.811 79.0053C71.4263 79.8499 72.0442 80.697 72.6595 81.5415C72.8108 81.7514 72.9672 81.9638 73.0441 82.2095C73.1312 82.4782 73.1184 82.77 73.1056 83.0515C72.9748 86.1918 72.9338 89.3371 72.9851 92.4825C72.9851 92.5798 72.9902 92.6796 73.0389 92.7615C73.1774 92.9995 73.5491 92.9125 73.7696 92.7461C74.7028 92.0423 74.749 90.6859 74.7105 89.5189C74.6439 87.4817 74.5772 85.4419 74.508 83.4047C74.4952 83.0285 74.4798 82.6395 74.2977 82.3093C74.1157 81.9792 73.7106 81.7437 73.3594 81.8743" fill="#F6F5F1"/>
<path d="M80.8611 79.1742C79.5869 84.6511 78.5204 90.174 77.6641 95.7303C78.6767 95.8403 79.7023 95.8531 80.7201 95.7686C80.8047 95.0904 80.9226 94.4199 81.079 93.7545C81.1944 93.2657 81.5097 92.6617 81.9994 92.7666C82.366 92.8459 82.5147 93.2733 82.5993 93.6368C82.7634 94.3329 82.9275 95.029 83.0941 95.7251C84.0247 95.7021 84.958 95.7021 85.8886 95.7277C84.9862 90.2022 84.1401 84.669 83.3505 79.1256C82.7531 79.0744 82.1532 79.0232 81.5558 78.9746C81.3866 78.9592 81.2072 78.949 81.0559 79.0258C80.8995 79.1077 80.8047 79.2689 80.7329 79.4301C80.2765 80.4385 80.397 81.6183 80.6996 82.683C81.0021 83.7477 81.4712 84.7663 81.7071 85.8463C82.0096 87.236 81.9096 88.7101 81.4225 90.0461C81.7712 90.1254 82.1224 90.2073 82.4711 90.2866C82.589 90.3148 82.7275 90.3353 82.8172 90.2534C82.8941 90.1843 82.8993 90.0665 82.8967 89.9642C82.8685 88.9174 82.5403 87.8784 81.9635 87.0031" fill="#F6F5F1"/>
<path d="M106.806 79.6349C106.77 80.0828 106.888 80.5409 107.132 80.9196C107.352 80.5946 107.757 80.4001 108.152 80.4308C108.547 80.4615 108.914 80.7175 109.08 81.0758C109.188 81.3061 109.214 81.5671 109.203 81.8205C109.162 82.8084 108.606 83.6939 108.027 84.495C107.655 85.0119 107.265 85.5187 106.952 86.0741C106.635 86.6371 106.396 87.2999 106.565 87.9244C108.019 87.9091 109.473 87.9398 110.924 88.0191C110.98 87.5405 110.99 87.0543 110.952 86.5731C110.216 86.6832 109.46 86.6448 108.739 86.4605C109.78 85.0247 110.442 83.3151 110.637 81.5543C110.69 81.063 110.701 80.5332 110.431 80.1186C110.114 79.6298 109.488 79.4378 108.906 79.3917C108.198 79.338 107.478 79.448 106.819 79.7142" fill="#F6F5F1"/>
<path d="M2.28682 98.3305C1.93558 100.132 2.90981 102.103 4.61984 102.837C4.80956 102.919 5.0326 102.894 5.14541 102.699C5.24027 102.538 5.19925 102.256 5.00697 102.175C3.62766 101.583 2.73548 100.025 3.02774 98.5352C3.06876 98.3331 2.97134 98.1206 2.75855 98.0618C2.56883 98.0106 2.32527 98.1257 2.28425 98.3305H2.28682Z" fill="#8EB55A"/>
<path d="M0.0513667 103.081C0.589756 104.058 1.57937 104.785 2.67922 104.99C2.87663 105.026 3.1048 104.936 3.15352 104.721C3.1971 104.532 3.09711 104.289 2.88432 104.248C2.76639 104.225 2.64845 104.199 2.53565 104.163C2.47156 104.145 2.41003 104.125 2.34849 104.102C2.32029 104.091 2.29209 104.081 2.26389 104.071C2.19723 104.045 2.27927 104.079 2.23825 104.061C2.01264 103.963 1.79729 103.841 1.59731 103.697C1.57168 103.679 1.5486 103.661 1.52553 103.644C1.47425 103.603 1.59219 103.7 1.50502 103.626C1.45887 103.587 1.41272 103.549 1.36914 103.508C1.27941 103.429 1.1948 103.344 1.11533 103.255C1.07431 103.211 1.03585 103.165 0.997394 103.119C0.923045 103.029 1.03841 103.178 0.969192 103.083C0.951246 103.06 0.9333 103.034 0.915353 103.011C0.843568 102.909 0.77691 102.802 0.71538 102.692C0.617957 102.515 0.361582 102.443 0.18981 102.553C0.0180378 102.663 -0.0511837 102.891 0.0513667 103.078V103.081Z" fill="#8EB55A"/>
<path d="M50.224 6.76676C48.9036 10.8693 47.6577 14.9949 46.4886 19.1435C46.1527 20.3361 45.822 21.5339 45.499 22.7291C45.4426 22.9415 45.5708 23.1309 45.7682 23.2025C49.9779 24.7125 54.2542 26.0357 58.5818 27.1669C58.7946 27.2232 58.9818 27.0952 59.0561 26.8981C60.8226 22.0995 62.5275 17.2803 64.1708 12.4407C64.5759 11.2455 64.9784 10.0478 65.3758 8.85003C65.5553 8.31257 65.7706 7.74953 65.5296 7.19672C65.3502 6.78212 64.9758 6.49292 64.5605 6.32912C64.0375 6.12182 63.4684 6.16021 62.9146 6.17557C62.3608 6.19092 61.8122 6.13462 61.2686 5.9913C60.1893 5.70722 59.1894 5.1928 58.1588 4.77819C57.5486 4.5325 56.9282 4.3124 56.2719 4.23307C55.6156 4.15373 54.9644 4.27145 54.3414 4.5325C53.0262 5.09043 51.7571 5.78911 50.4752 6.42126C50.0317 6.64136 50.4214 7.30165 50.8623 7.08412C51.9391 6.55178 53.0159 6.01945 54.0953 5.48712C54.6157 5.23119 55.1515 4.97782 55.7412 4.96502C56.3308 4.95223 56.859 5.11346 57.3871 5.30029C58.3895 5.65603 59.3356 6.14741 60.338 6.50316C60.8123 6.67207 61.2994 6.80771 61.7993 6.87937C62.3557 6.96127 62.8992 6.928 63.4555 6.92544C63.8939 6.92544 64.4093 6.97407 64.7143 7.33237C65.0656 7.74441 64.7143 8.38679 64.5682 8.82187C64.1888 9.96076 63.8068 11.0971 63.4222 12.2308C62.6505 14.5009 61.866 16.7685 61.0687 19.0309C60.1662 21.5902 59.2458 24.1443 58.3075 26.6908L58.7818 26.4221C54.4542 25.2909 50.1778 23.9678 45.9681 22.4578L46.2373 22.9312C47.3628 18.7724 48.5652 14.6315 49.842 10.5161C50.2086 9.33117 50.5829 8.14878 50.9649 6.96895C51.1162 6.49804 50.3752 6.29585 50.224 6.7642V6.76676Z" fill="#8EB55A"/>
<path d="M55.6515 4.76284C55.4977 5.65859 55.1593 6.5006 54.6362 7.24535C54.5798 7.32725 54.5209 7.40915 54.4568 7.48592C54.4337 7.51152 54.4106 7.54735 54.3799 7.56782C54.3696 7.5755 54.4542 7.5883 54.3363 7.56782C54.1132 7.53455 53.8928 7.48337 53.6723 7.43986C53.1416 7.33493 52.6109 7.23 52.0802 7.12506C51.8776 7.08412 51.6648 7.18393 51.6059 7.39379C51.5546 7.58318 51.67 7.82631 51.8751 7.86726C52.4699 7.98499 53.0647 8.10271 53.662 8.22044C53.9338 8.27419 54.2312 8.37144 54.5081 8.32281C54.7849 8.27419 54.967 8.07456 55.1362 7.8519C55.7797 7.0099 56.2104 6.00921 56.3899 4.96758C56.4257 4.76284 56.336 4.55298 56.1207 4.49411C55.9361 4.44293 55.6823 4.55554 55.6464 4.76284H55.6515Z" fill="#8EB55A"/>
<path d="M63.5941 13.5386L65.3503 14.2476L66.2271 14.6033C66.4322 14.6852 66.7424 14.7671 66.827 14.9949C66.986 15.4146 66.5809 16.0877 66.4348 16.4639C66.2015 17.0577 65.9682 17.6514 65.7348 18.2426C64.8016 20.6151 63.871 22.9875 62.9378 25.36C62.4712 26.5475 62.0046 27.7325 61.5405 28.92C61.3072 29.5137 61.0739 30.1075 60.8406 30.6987C60.733 30.97 60.6432 31.2566 60.5125 31.5177C60.374 31.7966 60.1715 31.6917 59.9126 31.6175C57.518 30.9367 55.1414 30.1817 52.7904 29.3653C51.4573 28.9021 50.1292 28.4209 48.8115 27.9167C48.6218 27.8451 48.3064 27.7606 48.2064 27.5636C48.0808 27.3127 48.291 26.8674 48.3577 26.6192C48.5474 25.9205 48.7346 25.2244 48.9243 24.5257C49.0525 24.0471 48.3115 23.8449 48.1834 24.3209C48.0013 24.9991 47.8167 25.6774 47.6347 26.3556C47.4809 26.9237 47.2245 27.584 47.6527 28.0984C48.0039 28.5207 48.6397 28.6692 49.1345 28.8534C49.7754 29.094 50.419 29.332 51.0625 29.5649C53.6801 30.5067 56.3233 31.3692 58.9947 32.1498C59.528 32.3059 60.2817 32.677 60.8099 32.3392C61.2893 32.0321 61.438 31.2771 61.6328 30.7831C62.1533 29.4574 62.6737 28.1343 63.1942 26.8086C64.2351 24.1597 65.2759 21.5083 66.3168 18.8594L67.1782 16.6635C67.4039 16.0851 67.7551 15.4248 67.5705 14.7876C67.3757 14.1119 66.5963 13.9251 66.022 13.6948L63.7992 12.7965C63.3403 12.6122 63.1403 13.3544 63.5941 13.5361V13.5386Z" fill="#8EB55A"/>
<path d="M51.8572 24.7432C50.4292 24.9198 49.1063 25.4675 47.9731 26.353C47.8091 26.481 47.8398 26.7625 47.9731 26.8956C48.1347 27.0568 48.3526 27.0235 48.5167 26.8956C49.473 26.1483 50.6523 25.6594 51.8572 25.511C52.0623 25.4854 52.2418 25.3523 52.2418 25.1271C52.2418 24.9403 52.0649 24.7176 51.8572 24.7432Z" fill="#8EB55A"/>
<path d="M49.9267 28.3441C51.0778 27.7376 52.2571 27.1899 53.4647 26.7088C53.657 26.632 53.7928 26.4528 53.7339 26.2353C53.6826 26.0536 53.4544 25.8898 53.2596 25.9666C51.9905 26.4733 50.7471 27.0415 49.537 27.6787C49.0986 27.9091 49.4883 28.5719 49.9241 28.3416H49.9267V28.3441Z" fill="#8EB55A"/>
<path d="M53.9081 26.4144H54.3388C54.3926 26.4144 54.4413 26.4042 54.4875 26.3812C54.5362 26.3658 54.5772 26.3402 54.6105 26.3018C54.649 26.266 54.6746 26.225 54.69 26.179C54.7131 26.1329 54.7259 26.0843 54.7234 26.0305C54.7182 25.9307 54.6875 25.8284 54.6105 25.7593C54.5336 25.6902 54.4439 25.6466 54.3388 25.6466H53.9081C53.8542 25.6466 53.8055 25.6569 53.7594 25.6799C53.7107 25.6953 53.6697 25.7209 53.6363 25.7593C53.5979 25.7951 53.5722 25.836 53.5568 25.8821C53.5338 25.9282 53.521 25.9768 53.5235 26.0305C53.5286 26.1304 53.5594 26.2327 53.6363 26.3018C53.7132 26.3709 53.803 26.4144 53.9081 26.4144Z" fill="#8EB55A"/>
<path d="M52.1828 29.4062C53.6134 28.6077 55.044 27.8092 56.4745 27.0108C56.9078 26.7702 56.5181 26.1073 56.0874 26.3479C54.6568 27.1464 53.2263 27.9449 51.7957 28.7434C51.3624 28.984 51.7521 29.6468 52.1828 29.4062Z" fill="#8EB55A"/>
<path d="M54.121 30.0768C54.9183 30.1075 55.5721 29.6571 56.2156 29.2501C56.9232 28.8023 57.6487 28.38 58.3871 27.9833C59.8536 27.195 61.3713 26.5142 62.9326 25.9384C63.3941 25.7695 63.1941 25.0273 62.7275 25.1988C61.2149 25.7567 59.7356 26.4068 58.3076 27.1541C57.6 27.5252 56.9052 27.9193 56.2233 28.339C55.59 28.728 54.9029 29.3397 54.1184 29.309C53.6236 29.2911 53.6236 30.0589 54.1184 30.0768H54.121Z" fill="#8EB55A"/>
<path d="M57.2463 30.8164C58.841 30.0896 60.4356 29.3653 62.0303 28.6385C62.22 28.5514 62.2661 28.2802 62.1687 28.1138C62.0559 27.9193 61.8329 27.8886 61.6431 27.9756C60.0485 28.7024 58.4538 29.4267 56.8592 30.1536C56.6694 30.2406 56.6233 30.5119 56.7207 30.6782C56.8335 30.8727 57.0566 30.9034 57.2463 30.8164Z" fill="#8EB55A"/>
<path d="M58.8613 31.7941C59.5022 31.7352 60.1226 31.5407 60.6713 31.2029C60.8431 31.0979 60.9225 30.8548 60.8097 30.6782C60.6969 30.5016 60.4662 30.4274 60.2842 30.54C60.1637 30.6142 60.0406 30.6808 59.9124 30.7422C59.8791 30.7576 59.8432 30.778 59.8099 30.7883L59.8509 30.7729C59.8329 30.7806 59.815 30.7883 59.7996 30.7934C59.7329 30.819 59.6689 30.8446 59.6022 30.865C59.474 30.9085 59.3407 30.9444 59.2074 30.9725C59.1433 30.9853 59.0792 30.9981 59.0125 31.0084C58.9946 31.0109 58.9766 31.0135 58.9561 31.016C59.0125 31.0084 59.0177 31.0084 58.9741 31.0135C58.9356 31.0186 58.8997 31.0212 58.8613 31.0263C58.6613 31.0442 58.4665 31.1901 58.4767 31.4102C58.4844 31.6021 58.6459 31.8145 58.8613 31.7941Z" fill="#8EB55A"/>
<path d="M60.2586 25.2448C61.0175 25.099 61.8097 24.9224 62.4404 24.4515C62.7122 24.2467 62.9532 24.0061 63.2121 23.786C63.4146 23.612 63.6505 23.4482 63.9223 23.4354C64.4145 23.4124 64.4171 22.6446 63.9223 22.6676C63.1634 22.7009 62.6788 23.2563 62.1404 23.7144C61.5559 24.2109 60.7868 24.3644 60.0535 24.5052C59.8484 24.5436 59.7331 24.7893 59.7843 24.9787C59.8433 25.1911 60.0535 25.2858 60.2586 25.2474V25.2448Z" fill="#8EB55A"/>
<path d="M61.2328 22.6497C62.5326 22.0176 63.8094 21.3445 65.063 20.6279C65.4912 20.3822 65.1066 19.7193 64.6759 19.965C63.4222 20.6816 62.1455 21.3573 60.8456 21.9869C60.6585 22.0764 60.6098 22.3426 60.7072 22.5115C60.8174 22.7009 61.0456 22.7393 61.2328 22.6497Z" fill="#8EB55A"/>
<path d="M61.8969 20.4564C63.248 20.0111 64.5606 19.4583 65.8245 18.8082C66.2655 18.583 65.8758 17.9201 65.4374 18.1454C64.2299 18.7673 62.9813 19.2894 61.6918 19.7168C61.2252 19.8703 61.4251 20.6125 61.8969 20.4564Z" fill="#8EB55A"/>
<path d="M62.4095 18.0072C63.7785 17.329 65.1732 16.707 66.591 16.1414C66.7832 16.0647 66.9191 15.8855 66.8602 15.668C66.8089 15.4837 66.5807 15.3225 66.3859 15.3992C64.904 15.9879 63.4478 16.6354 62.0198 17.3417C61.5763 17.5618 61.9659 18.2247 62.4069 18.0046H62.4095V18.0072Z" fill="#8EB55A"/>
<path d="M63.3787 15.8267C63.4172 15.7959 63.5428 15.7089 63.6172 15.6577C63.7018 15.6014 63.7864 15.5477 63.8761 15.4965C64.0479 15.3967 64.2837 15.279 64.4273 15.2175C64.6273 15.1331 64.8349 15.064 65.0426 15.0077C65.1477 14.9795 65.2528 14.9539 65.3605 14.9309C65.4169 14.9181 65.4733 14.9079 65.5323 14.8976C65.5605 14.8925 65.5887 14.8874 65.6169 14.8848C65.6656 14.8772 65.6733 14.8772 65.6425 14.8797C65.8399 14.8541 66.0373 14.721 66.0271 14.4958C66.0194 14.3116 65.8553 14.0838 65.6425 14.1119C64.6068 14.2476 63.6607 14.6417 62.8352 15.279C62.6711 15.4069 62.7019 15.6884 62.8352 15.8215C62.9967 15.9828 63.2146 15.9495 63.3787 15.8215V15.8267Z" fill="#8EB55A"/>
</g>
<defs>
<clipPath id="clip0_62_463">
<rect width="134" height="105" fill="white"/>
</clipPath>
</defs>
</svg>
