<svg width="63" height="63" viewBox="0 0 63 63" fill="none" xmlns="http://www.w3.org/2000/svg">
<path d="M28.5578 2.76964C29.199 -0.448895 33.801 -0.448882 34.4422 2.76965L36.2103 11.6453C36.6517 13.8614 39.292 14.8124 41.0452 13.3868L47.9918 7.73785C50.5287 5.67489 54.0669 8.58234 52.5349 11.471L48.1559 19.7279C47.1129 21.6945 48.4996 24.072 50.7249 24.1324L59.9337 24.3821C63.1855 24.4702 63.9914 28.9463 60.9746 30.1632L52.3042 33.6603C50.2507 34.4886 49.7713 37.1798 51.4126 38.6661L58.3818 44.9778C60.798 47.166 58.4818 51.0947 55.3974 50.0401L46.828 47.11C44.7047 46.384 42.5651 48.1609 42.8888 50.3814L44.2168 59.4916C44.6897 62.7357 40.3607 64.2787 38.6751 61.4668L34.0731 53.7898C32.9081 51.8465 30.0919 51.8465 28.9269 53.7898L24.3249 61.4668C22.6393 64.2787 18.3103 62.7357 18.7832 59.4916L20.1112 50.3814C20.4349 48.1609 18.2953 46.384 16.172 47.11L7.60263 50.0401C4.51821 51.0947 2.20204 47.166 4.6182 44.9778L11.5874 38.6661C13.2287 37.1798 12.7493 34.4886 10.6958 33.6603L2.02543 30.1632C-0.991452 28.9463 -0.185539 24.4702 3.06631 24.3821L12.2751 24.1324C14.5004 24.072 15.8871 21.6945 14.8441 19.7279L10.4651 11.471C8.9331 8.58234 12.4713 5.6749 15.0082 7.73786L21.9548 13.3868C23.708 14.8124 26.3483 13.8614 26.7897 11.6453L28.5578 2.76964Z" fill="#DD6B2F"/>
</svg>
